<svg xmlns="http://www.w3.org/2000/svg" viewBox="0 0 32 32"><style>.i{stroke:#1c1f24}.f{fill:#1c1f24}.b{fill:#23262d;stroke:#15171c}.h{stroke:#0f766e}.d{fill:#c2410c}@media (prefers-color-scheme:dark){.i{stroke:#e7e9ee}.f{fill:#e7e9ee}.b{fill:#090a0d;stroke:#a3abba}.h{stroke:#2dd4bf}.d{fill:#fb923c}}</style><path class="b" stroke-width="1" fill-rule="evenodd" d="M1.5 21V8.5C1.5 5.5 3.5 4 6.5 4h7c3 0 5 1.5 5 4.5V21zM12 7.5h3.5v6.5H12z"/><path class="d" d="M12.6 9.3h2.3v1h-2.3zM13.75 10.6a1 1 0 1 0 .01 0zM12.5 14h2.5l-.5-1.6h-1.5z"/><g fill="none" stroke-linecap="round" stroke-linejoin="round"><circle class="i" cx="6" cy="25.5" r="4.6" stroke-width="1.6"/><circle class="i" cx="15" cy="25.5" r="4.6" stroke-width="1.6"/><path class="h" stroke-width="1.8" d="M18 21l6-3"/></g><path class="f" d="M21.5 23.5l1.2-8.5c.6-3.5 2.4-6.5 4.6-9.2l.2-2.3 1.4 2.1c1.4 2.2 2.4 4.8 2.7 7.2.1.9-.6 1.4-1.5 1.1l-2.2-1-1.6 4.1-.6 6.5z"/><path class="h" fill="none" stroke-width="1.3" stroke-linecap="round" d="M23.4 14.5c-.9 2.2-.8 4.4.2 6.3"/></svg>
